<svg width="183" height="50" viewBox="0 0 183 50" fill="none" xmlns="http://www.w3.org/2000/svg">
<path d="M67.1112 31.384C65.9112 31.384 64.8632 31.256 63.9672 31C63.0712 30.744 62.2472 30.36 61.4952 29.848L62.2632 28.216C63.6072 29.176 65.2232 29.656 67.1112 29.656C68.1992 29.656 69.1032 29.392 69.8232 28.864C70.5432 28.336 70.9032 27.616 70.9032 26.704C70.9032 26.144 70.7352 25.672 70.3992 25.288C70.0632 24.904 69.6392 24.6 69.1272 24.376C68.6312 24.136 67.9352 23.856 67.0392 23.536C65.9672 23.152 65.1032 22.8 64.4472 22.48C63.8072 22.16 63.2552 21.712 62.7912 21.136C62.3432 20.544 62.1192 19.792 62.1192 18.88C62.1192 17.44 62.6312 16.328 63.6552 15.544C64.6792 14.76 65.9912 14.368 67.5912 14.368C69.5112 14.368 71.1832 14.872 72.6072 15.88L71.8392 17.464C70.5592 16.536 69.1592 16.072 67.6392 16.072C66.6632 16.072 65.8632 16.304 65.2392 16.768C64.6152 17.232 64.3032 17.904 64.3032 18.784C64.3032 19.328 64.4712 19.784 64.8072 20.152C65.1432 20.52 65.5592 20.824 66.0552 21.064C66.5512 21.288 67.2392 21.56 68.1192 21.88C69.1912 22.264 70.0552 22.624 70.7112 22.96C71.3672 23.28 71.9272 23.744 72.3912 24.352C72.8552 24.944 73.0872 25.696 73.0872 26.608C73.0872 27.584 72.8392 28.432 72.3432 29.152C71.8472 29.872 71.1432 30.424 70.2312 30.808C69.3352 31.192 68.2952 31.384 67.1112 31.384ZM82.3949 17.752C83.4509 17.752 84.3789 18.016 85.1789 18.544C85.9789 19.056 86.6029 19.816 87.0509 20.824C87.4989 21.816 87.7229 22.992 87.7229 24.352C87.7229 26.672 87.1229 28.432 85.9229 29.632C84.7229 30.832 83.1389 31.432 81.1709 31.432C80.3229 31.432 79.5229 31.288 78.7709 31V36.664H76.6349V18.136H78.2909L78.5309 19.216C79.6669 18.24 80.9549 17.752 82.3949 17.752ZM81.0749 29.776C82.5949 29.776 83.7149 29.288 84.4349 28.312C85.1709 27.336 85.5389 26 85.5389 24.304C85.5389 22.608 85.2189 21.376 84.5789 20.608C83.9549 19.824 83.1789 19.432 82.2509 19.432C81.5629 19.432 80.9549 19.536 80.4269 19.744C79.9149 19.936 79.3629 20.256 78.7709 20.704V29.32C79.4589 29.624 80.2269 29.776 81.0749 29.776ZM101.704 30.976C101.128 31.184 100.552 31.296 99.9758 31.312C99.3358 31.312 98.8078 31.184 98.3918 30.928C97.9918 30.672 97.7438 30.224 97.6478 29.584C96.1278 30.752 94.7198 31.336 93.4238 31.336C92.4158 31.336 91.5918 31.048 90.9518 30.472C90.3118 29.88 89.9918 29.144 89.9918 28.264C89.9918 27.448 90.2158 26.776 90.6638 26.248C91.1118 25.704 91.7358 25.256 92.5358 24.904C93.3518 24.552 94.4478 24.176 95.8238 23.776L97.5998 23.272V22.336C97.5998 20.416 96.8718 19.456 95.4158 19.456C94.6158 19.456 93.8798 19.624 93.2078 19.96C92.5358 20.28 91.7758 20.888 90.9278 21.784L90.0398 20.44C91.8318 18.648 93.7598 17.752 95.8238 17.752C97.1998 17.752 98.1918 18.112 98.7998 18.832C99.4238 19.552 99.7358 20.752 99.7358 22.432V28.696C99.7358 29.048 99.7998 29.304 99.9278 29.464C100.056 29.608 100.256 29.68 100.528 29.68C100.768 29.68 101.112 29.6 101.56 29.44L101.704 30.976ZM92.1278 28.096C92.1278 28.64 92.2878 29.04 92.6078 29.296C92.9278 29.552 93.3518 29.68 93.8798 29.68C94.4238 29.68 94.9838 29.544 95.5598 29.272C96.1518 29 96.8318 28.584 97.5998 28.024V24.688L96.2318 25.096C94.7118 25.56 93.6478 26.008 93.0398 26.44C92.4318 26.872 92.1278 27.424 92.1278 28.096ZM111.08 19.768C110.312 19.768 109.576 19.904 108.872 20.176C108.184 20.432 107.408 20.912 106.544 21.616V31H104.408V18.184H106.064L106.448 19.912C107.232 19.128 107.992 18.576 108.728 18.256C109.48 17.936 110.264 17.776 111.08 17.776V19.768ZM121.241 30.52C120.409 31.048 119.513 31.312 118.553 31.312C117.177 31.312 116.161 30.944 115.505 30.208C114.849 29.456 114.521 28.384 114.521 26.992V19.792H112.481V18.88L114.713 18.256L115.361 15.16H116.657V18.184H120.497V19.792H116.657V26.656C116.657 27.696 116.825 28.456 117.161 28.936C117.497 29.4 118.041 29.632 118.793 29.632C119.161 29.616 119.497 29.56 119.801 29.464C120.121 29.368 120.473 29.216 120.857 29.008L121.241 30.52ZM134.915 30.976C134.339 31.184 133.763 31.296 133.187 31.312C132.547 31.312 132.019 31.184 131.603 30.928C131.203 30.672 130.955 30.224 130.859 29.584C129.339 30.752 127.931 31.336 126.635 31.336C125.627 31.336 124.803 31.048 124.163 30.472C123.523 29.88 123.203 29.144 123.203 28.264C123.203 27.448 123.427 26.776 123.875 26.248C124.323 25.704 124.947 25.256 125.747 24.904C126.563 24.552 127.659 24.176 129.035 23.776L130.811 23.272V22.336C130.811 20.416 130.083 19.456 128.627 19.456C127.827 19.456 127.091 19.624 126.419 19.96C125.747 20.28 124.987 20.888 124.139 21.784L123.251 20.44C125.043 18.648 126.971 17.752 129.035 17.752C130.411 17.752 131.403 18.112 132.011 18.832C132.635 19.552 132.947 20.752 132.947 22.432V28.696C132.947 29.048 133.011 29.304 133.139 29.464C133.267 29.608 133.467 29.68 133.739 29.68C133.979 29.68 134.323 29.6 134.771 29.44L134.915 30.976ZM125.339 28.096C125.339 28.64 125.499 29.04 125.819 29.296C126.139 29.552 126.563 29.68 127.091 29.68C127.635 29.68 128.195 29.544 128.771 29.272C129.363 29 130.043 28.584 130.811 28.024V24.688L129.443 25.096C127.923 25.56 126.859 26.008 126.251 26.44C125.643 26.872 125.339 27.424 125.339 28.096ZM144.723 31.216C144.323 31.216 143.979 31.072 143.691 30.784C143.403 30.496 143.259 30.152 143.259 29.752C143.259 29.352 143.403 29.008 143.691 28.72C143.979 28.432 144.323 28.288 144.723 28.288C145.123 28.288 145.467 28.432 145.755 28.72C146.043 29.008 146.187 29.352 146.187 29.752C146.187 30.152 146.043 30.496 145.755 30.784C145.483 31.072 145.139 31.216 144.723 31.216ZM150.754 14.68H152.962V31H150.754V14.68ZM164.396 17.752C165.804 17.752 166.772 18.128 167.3 18.88C167.844 19.616 168.116 20.68 168.116 22.072V31H165.98V22.264C165.98 21.256 165.82 20.536 165.5 20.104C165.18 19.672 164.628 19.456 163.844 19.456C163.252 19.456 162.652 19.592 162.044 19.864C161.436 20.136 160.772 20.552 160.052 21.112V31H157.916V18.184H159.572L159.884 19.528C161.436 18.344 162.94 17.752 164.396 17.752ZM177.558 31.432C176.214 31.432 175.078 31.128 174.15 30.52C173.222 29.896 172.526 29.072 172.062 28.048C171.614 27.024 171.39 25.88 171.39 24.616C171.39 23.368 171.622 22.224 172.086 21.184C172.566 20.144 173.286 19.312 174.246 18.688C175.206 18.064 176.398 17.752 177.822 17.752C178.606 17.752 179.358 17.888 180.078 18.16C180.798 18.416 181.39 18.784 181.854 19.264L181.062 20.776C180.662 20.36 180.174 20.032 179.598 19.792C179.022 19.536 178.43 19.408 177.822 19.408C176.478 19.408 175.43 19.888 174.678 20.848C173.942 21.792 173.574 23.04 173.574 24.592C173.574 26.16 173.918 27.416 174.606 28.36C175.31 29.304 176.294 29.776 177.558 29.776C178.342 29.776 179.038 29.616 179.646 29.296C180.254 28.96 180.83 28.504 181.374 27.928L182.19 29.296C181.646 29.92 180.974 30.432 180.174 30.832C179.39 31.232 178.518 31.432 177.558 31.432Z" fill="#6D7D7D"/>
<path d="M4.86047 22.0943C4.65878 21.3308 4.65875 20.5269 4.86038 19.7634C5.06202 18.9999 5.45821 18.3036 6.00913 17.7447L17.489 6.09716C18.0399 5.53819 18.7261 5.13621 19.4786 4.93163C20.2312 4.72705 21.0235 4.72708 21.7761 4.93172L32.5184 7.85215C32.6302 6.359 33.1425 4.92532 34 3.70642L21.0616 0.18933C20.133 -0.0631155 19.1552 -0.0631103 18.2265 0.189347C17.2978 0.441805 16.451 0.937822 15.7712 1.62755L1.60412 16.0015C0.924318 16.6913 0.435444 17.5504 0.186622 18.4927C-0.0622018 19.4349 -0.0622072 20.427 0.186605 21.3692L3.78642 35C4.96321 34.0882 6.36426 33.5219 7.83665 33.3631L4.86047 22.0943Z" fill="#6D7D7D"/>
<path d="M41.948 16.7451L45.0685 28.2231C45.2732 28.9758 45.2729 29.7681 45.0685 30.5205C44.8638 31.2732 44.4617 31.9593 43.9028 32.5102L32.2552 43.9907C31.6963 44.5416 31.0002 44.9376 30.2365 45.1394C29.4731 45.3409 28.669 45.3409 27.9056 45.1394L16.6369 42.1631C16.4781 43.6356 15.9119 45.0367 15 46.2134L28.6307 49.8133C29.5729 50.0622 30.565 50.0622 31.5072 49.8133C32.4496 49.5644 33.3086 49.0757 33.9985 48.3958L48.3724 34.2284C49.0622 33.5485 49.558 32.7018 49.8106 31.7729C50.0631 30.8443 50.0631 29.8664 49.8106 28.9378L46.0205 15C44.8517 15.9402 43.4425 16.5441 41.948 16.7451Z" fill="#6D7D7D"/>
<path d="M3.90385 36.9012C2.99479 37.8103 2.37571 38.969 2.1249 40.23C1.87409 41.4913 2.00281 42.7985 2.49479 43.9866C2.98674 45.1743 3.81987 46.1898 4.88878 46.9043C5.95771 47.6185 7.21441 48 8.5 48C9.78558 48 11.0423 47.6185 12.1112 46.9043C13.1801 46.1898 14.0133 45.1743 14.5052 43.9866C14.9972 42.7985 15.1259 41.4913 14.8751 40.23C14.6243 38.969 14.0052 37.8103 13.0962 36.9012C11.8762 35.6838 10.2233 35 8.5 35C6.77671 35 5.12378 35.6838 3.90385 36.9012Z" fill="#6D7D7D"/>
<path d="M35.9038 3.9012C34.9949 4.81044 34.3755 5.96889 34.1249 7.23008C33.8741 8.49123 34.0028 9.79848 34.4948 10.9865C34.9868 12.1745 35.8198 13.1899 36.8886 13.9043C37.9577 14.6187 39.2144 15 40.4999 15C41.7856 15 43.0423 14.6187 44.1114 13.9043C45.1802 13.1899 46.0132 12.1745 46.5052 10.9865C46.9972 9.79848 47.1259 8.49123 46.8751 7.23008C46.6245 5.96889 46.0051 4.81044 45.0962 3.9012C43.8764 2.68373 42.2233 2 40.4999 2C38.7767 2 37.1236 2.68373 35.9038 3.9012Z" fill="#6D7D7D"/>
<path d="M28.7654 42C28.5078 42 28.2515 41.9663 28.0027 41.8996L17.9797 39.2139C17.6455 37.4293 16.7796 35.7873 15.4957 34.5036C14.2118 33.2199 12.5698 32.3538 10.7851 32.0198L8.09957 21.9981C7.96643 21.4982 7.96681 20.9722 8.10071 20.4725C8.23462 19.9728 8.49733 19.517 8.86258 19.1507L19.1501 8.86347C19.516 8.49752 19.9718 8.23438 20.4717 8.10042C20.9717 7.9665 21.498 7.96653 21.9979 8.1005L31.7399 10.7108C32.1263 12.4843 33.0394 14.0998 34.3596 15.3456C35.6798 16.5915 37.3455 17.4096 39.1384 17.6927L41.9005 28.0025C42.0335 28.5026 42.0333 29.0287 41.8991 29.5282C41.7653 30.028 41.5026 30.4837 41.1372 30.8502L30.8497 41.1372C30.5767 41.4115 30.2516 41.6293 29.8939 41.7772C29.5361 41.9254 29.1526 42.0011 28.7654 42Z" fill="#6D7D7D"/>
</svg>
