<svg width="123" height="45" viewBox="0 0 123 45" fill="none" xmlns="http://www.w3.org/2000/svg">
<path d="M24.2446 7.70615L25.9417 5.99665C29.2745 2.63965 34.7003 2.55656 38.0522 5.89422C39.3223 7.16173 40.1664 8.79816 40.4658 10.5736C40.7652 12.3492 40.5049 14.1745 39.7214 15.7933C39.3456 16.5666 39.2191 17.4388 39.3592 18.2881C39.4995 19.1374 39.8995 19.9214 40.5036 20.5305C41.6143 19.4091 42.4947 18.0783 43.0946 16.614C43.6945 15.1498 44.0022 13.5808 44 11.9967C43.9976 10.4127 43.6857 8.84463 43.0817 7.3821C42.4776 5.91954 41.5934 4.5912 40.4796 3.47297C35.7925 -1.2216 28.1844 -1.12818 23.5105 3.57958L7.33376 19.8735L6.00388 18.534C2.6146 15.12 2.593 9.53962 6.04207 6.18635C7.31877 4.94895 8.9453 4.14118 10.6972 3.87454C12.4491 3.60791 14.2399 3.89556 15.8226 4.69777C16.5449 5.07064 17.3658 5.20402 18.1679 5.07888C18.9701 4.95374 19.7124 4.57648 20.289 4.00096L20.3302 3.95963C20.3431 3.9468 20.3532 3.93152 20.3602 3.91468C20.3671 3.89787 20.3707 3.87982 20.3707 3.8616C20.3707 3.84337 20.3671 3.82533 20.3602 3.80851C20.3532 3.7917 20.3431 3.77642 20.3302 3.76356C18.1037 1.57721 15.1201 0.349138 12.0107 0.339209C8.90126 0.329282 5.90994 1.53827 3.66973 3.71036C-1.15592 8.40274 -1.13868 16.2057 3.60426 20.9831L19.7762 37.2727L18.0583 39.0031C14.7255 42.3601 9.29954 42.4432 5.9478 39.1055C4.6777 37.8381 3.83366 36.2015 3.53423 34.4261C3.23483 32.6507 3.49504 30.8253 4.27837 29.2064C4.65417 28.4331 4.78083 27.5609 4.64067 26.7117C4.50048 25.8624 4.10044 25.0783 3.49646 24.4692C2.38575 25.5907 1.50528 26.9214 0.905353 28.3856C0.305419 29.85 -0.00221719 31.4188 1.20288e-05 33.003C0.00224126 34.587 0.314292 36.1552 0.918346 37.6176C1.5224 39.0802 2.40661 40.4086 3.52046 41.5268C8.20732 46.2215 15.8156 46.1283 20.4896 41.4204L36.6872 25.1047L38.0221 26.4493C41.3549 29.8063 41.4374 35.2715 38.1238 38.6476C36.8655 39.9272 35.2408 40.7772 33.4782 41.079C31.7156 41.3806 29.9034 41.1183 28.2962 40.3292C27.5282 39.9505 26.6619 39.8228 25.8184 39.9643C24.975 40.1057 24.1964 40.509 23.5916 41.1179C24.705 42.2368 26.0262 43.1237 27.4798 43.728C28.9336 44.3322 30.4911 44.6422 32.0639 44.64C33.6364 44.6376 35.1932 44.3232 36.6451 43.7148C38.0972 43.1063 39.4159 42.2157 40.526 41.0937C45.1869 36.3728 45.0942 28.7092 40.4204 24.0014L24.2446 7.70615ZM22.1911 34.8391L9.74931 22.3069L21.8288 10.1397L34.2706 22.672L22.1911 34.8391Z" fill="#6D7D7D"/>
<path d="M56.552 15.072V20H54.2V8.544H62.248V10.512H56.552V13.104H61.576V15.072H56.552ZM71.121 20H68.929V18.8C68.3317 19.7173 67.4837 20.176 66.385 20.176C65.4143 20.176 64.6783 19.888 64.177 19.312C63.7503 18.8107 63.537 18.1227 63.537 17.248V11.52H65.745V16.784C65.745 17.7973 66.2143 18.304 67.153 18.304C67.6863 18.304 68.113 18.1547 68.433 17.856C68.7637 17.5573 68.929 17.152 68.929 16.64V11.52H71.121V20ZM80.7948 8.544V20H78.5868V19.056C78.0748 19.8027 77.3014 20.176 76.2668 20.176C75.1468 20.176 74.2454 19.7067 73.5628 18.768C72.9761 17.968 72.6828 16.9707 72.6828 15.776C72.6828 14.3573 73.0561 13.2373 73.8028 12.416C74.4534 11.7013 75.2694 11.344 76.2508 11.344C77.2854 11.344 78.0641 11.7387 78.5868 12.528V8.544H80.7948ZM76.7468 13.152C76.1921 13.152 75.7441 13.392 75.4028 13.872C75.0614 14.352 74.8908 14.9813 74.8908 15.76C74.8908 16.528 75.0561 17.152 75.3868 17.632C75.7281 18.1013 76.1814 18.336 76.7468 18.336C77.3121 18.336 77.7601 18.1013 78.0908 17.632C78.4321 17.1627 78.6028 16.5387 78.6028 15.76C78.6028 14.9707 78.4321 14.3413 78.0908 13.872C77.7494 13.392 77.3014 13.152 76.7468 13.152ZM90.115 19.44V20H87.715C87.555 19.7973 87.4697 19.5093 87.459 19.136C86.8723 19.8293 86.019 20.176 84.899 20.176C84.0777 20.176 83.4163 19.9253 82.915 19.424C82.5097 19.0187 82.307 18.4587 82.307 17.744C82.307 16.6773 82.7337 15.92 83.587 15.472C83.9497 15.28 84.6697 15.088 85.747 14.896L87.475 14.576L87.459 13.968C87.4483 13.4027 87.0217 13.12 86.179 13.12C85.635 13.12 85.251 13.2053 85.027 13.376C84.8137 13.536 84.6803 13.8347 84.627 14.272H82.515C82.643 12.32 83.8483 11.344 86.131 11.344C87.3897 11.344 88.2963 11.568 88.851 12.016C89.3523 12.4427 89.603 13.088 89.603 13.952V18.688C89.603 19.072 89.7737 19.3227 90.115 19.44ZM87.475 15.904L85.859 16.272C85.4003 16.3787 85.059 16.5333 84.835 16.736C84.6217 16.9387 84.515 17.1893 84.515 17.488C84.515 18.096 84.9097 18.4 85.699 18.4C86.8403 18.4 87.427 17.776 87.459 16.528L87.475 15.904ZM56.552 33.072V38H54.2V26.544H62.248V28.512H56.552V31.104H61.576V33.072H56.552ZM71.121 38H68.929V36.8C68.3317 37.7173 67.4837 38.176 66.385 38.176C65.4143 38.176 64.6783 37.888 64.177 37.312C63.7503 36.8107 63.537 36.1227 63.537 35.248V29.52H65.745V34.784C65.745 35.7973 66.2143 36.304 67.153 36.304C67.6863 36.304 68.113 36.1547 68.433 35.856C68.7637 35.5573 68.929 35.152 68.929 34.64V29.52H71.121V38ZM73.2108 29.52H75.4188V31.136C75.6961 29.9413 76.4854 29.344 77.7868 29.344C77.9894 29.344 78.1334 29.344 78.2188 29.344L78.2348 31.52C77.9681 31.4667 77.6908 31.44 77.4028 31.44C76.6774 31.44 76.1761 31.5733 75.8988 31.84C75.5788 32.1387 75.4188 32.6773 75.4188 33.456V38H73.2108V29.52ZM79.3201 29.52H81.5281V30.72C82.1255 29.8027 82.9681 29.344 84.0561 29.344C85.0268 29.344 85.7628 29.632 86.2641 30.208C86.6908 30.72 86.9041 31.4133 86.9041 32.288V38H84.7121V32.736C84.7121 31.7227 84.2375 31.216 83.2881 31.216C82.7548 31.216 82.3281 31.3707 82.0081 31.68C81.6881 31.9787 81.5281 32.3787 81.5281 32.88V38H79.3201V29.52ZM91.1695 29.52V38H88.9615V29.52H91.1695ZM90.0495 26.608C90.3375 26.608 90.5775 26.7093 90.7695 26.912C90.9722 27.1147 91.0735 27.36 91.0735 27.648C91.0735 27.936 90.9722 28.1813 90.7695 28.384C90.5775 28.576 90.3375 28.672 90.0495 28.672C89.7615 28.672 89.5162 28.576 89.3135 28.384C89.1108 28.1813 89.0095 27.936 89.0095 27.648C89.0095 27.36 89.1108 27.1147 89.3135 26.912C89.5162 26.7093 89.7615 26.608 90.0495 26.608ZM97.3205 29.52V30.976H95.8325V35.696C95.8325 36.0053 95.8858 36.2187 95.9925 36.336C96.1098 36.4533 96.3178 36.512 96.6165 36.512C96.8618 36.512 97.1765 36.416 97.5605 36.224C97.5925 36.2027 97.6192 36.1867 97.6405 36.176L97.8965 37.68C97.2245 38.0107 96.5205 38.176 95.7845 38.176C94.3445 38.176 93.6245 37.5147 93.6245 36.192V30.976H92.5365V29.52H93.6245V28.112L95.8325 26.848V29.52H97.3205ZM106.824 38H104.632V36.8C104.035 37.7173 103.187 38.176 102.088 38.176C101.117 38.176 100.381 37.888 99.8801 37.312C99.4535 36.8107 99.2401 36.1227 99.2401 35.248V29.52H101.448V34.784C101.448 35.7973 101.917 36.304 102.856 36.304C103.389 36.304 103.816 36.1547 104.136 35.856C104.467 35.5573 104.632 35.152 104.632 34.64V29.52H106.824V38ZM108.914 29.52H111.122V31.136C111.399 29.9413 112.189 29.344 113.49 29.344C113.693 29.344 113.837 29.344 113.922 29.344L113.938 31.52C113.671 31.4667 113.394 31.44 113.106 31.44C112.381 31.44 111.879 31.5733 111.602 31.84C111.282 32.1387 111.122 32.6773 111.122 33.456V38H108.914V29.52ZM122.399 34.336H116.703C116.735 35.0187 116.842 35.504 117.023 35.792C117.333 36.2613 117.818 36.496 118.479 36.496C119.301 36.496 119.85 36.1547 120.127 35.472H122.303C122.058 36.304 121.578 36.9653 120.863 37.456C120.159 37.936 119.333 38.176 118.383 38.176C117.093 38.176 116.101 37.744 115.407 36.88C114.799 36.1227 114.495 35.1253 114.495 33.888C114.495 32.384 114.89 31.2213 115.679 30.4C116.373 29.696 117.285 29.344 118.415 29.344C119.279 29.344 120.037 29.5573 120.687 29.984C121.338 30.4107 121.802 31.008 122.079 31.776C122.303 32.3733 122.415 33.0933 122.415 33.936C122.415 34.0427 122.41 34.176 122.399 34.336ZM120.111 32.88C120.005 31.6427 119.434 31.024 118.399 31.024C117.429 31.024 116.874 31.6427 116.735 32.88H120.111Z" fill="#6D7D7D"/>
</svg>
