<svg width="171" height="28" viewBox="0 0 171 28" fill="none" xmlns="http://www.w3.org/2000/svg">
<path d="M21.8379 24.584C20.9845 24.584 20.2485 24.2427 19.6299 23.56C19.0325 22.8773 18.5099 22.0027 18.0619 20.936C17.6139 19.8693 17.2192 18.7707 16.8779 17.64C16.0885 15.0587 15.7579 13.5227 15.8859 13.032C14.6272 14.7173 13.5392 16.1253 12.6219 17.256C11.7045 18.3653 10.9579 19.1973 10.3819 19.752C7.86454 22.184 5.31521 23.4 2.73388 23.4C1.96588 23.4 1.33654 23.24 0.845875 22.92C0.333875 22.6 0.0778749 22.0667 0.0778749 21.32C0.0778749 20.8507 0.184542 20.3493 0.397875 19.816C0.611208 19.2613 0.877875 18.7387 1.19787 18.248C1.51788 17.7573 1.83788 17.352 2.15788 17.032C2.86188 16.328 3.44854 15.976 3.91788 15.976C4.00321 15.976 4.04588 15.9973 4.04588 16.04C4.04588 16.1467 3.88588 16.328 3.56588 16.584C2.81921 17.1813 2.20054 17.8747 1.70988 18.664C1.21921 19.432 0.973875 20.136 0.973875 20.776C0.973875 21.9707 1.81654 22.536 3.50188 22.472C6.25388 22.3653 10.0725 19.0373 14.9579 12.488C15.2352 12.1253 15.4699 11.8693 15.6619 11.72L15.1499 11.528C14.8725 11.6347 14.6485 11.688 14.4779 11.688C14.0299 11.688 13.8059 11.5067 13.8059 11.144C13.8059 10.6533 14.1365 10.3333 14.7979 10.184C15.2032 10.0773 15.7259 10.2587 16.3659 10.728C17.1979 9.78933 17.9979 8.89333 18.7659 8.04C19.5552 7.18667 20.2699 6.49333 20.9099 5.96C21.5499 5.40533 22.0619 5.128 22.4459 5.128C22.9579 5.128 23.2139 5.36267 23.2139 5.832C23.2139 6.024 23.1605 6.22667 23.0539 6.44C22.9685 6.632 22.8619 6.728 22.7339 6.728C22.6059 6.74933 22.5419 6.68533 22.5419 6.536C22.5419 6.42933 22.6059 6.30133 22.7339 6.152V6.024C22.7339 5.896 22.6912 5.8 22.6059 5.736C22.0512 5.37333 20.3445 7.176 17.4859 11.144C17.7205 11.1653 17.9659 11.1867 18.2219 11.208C18.4992 11.208 18.7872 11.208 19.0859 11.208C24.0352 11.208 27.1285 9.928 28.3659 7.368C28.6219 6.81333 28.7499 6.30133 28.7499 5.832C28.7499 4.89333 28.3125 4.072 27.4379 3.368C26.6485 2.728 25.6032 2.30133 24.3019 2.088C23.0219 1.85333 21.7419 1.736 20.4619 1.736C17.6245 1.736 14.6059 2.51466 11.4059 4.072C7.52321 5.97067 5.58188 8.2 5.58188 10.76C5.58188 11.592 6.12588 12.008 7.21388 12.008C8.21654 12.008 9.34721 11.6027 10.6059 10.792C11.6939 10.0667 12.4405 9.33067 12.8459 8.584C12.9952 8.30667 13.1339 8.168 13.2619 8.168C13.4112 8.168 13.4539 8.25333 13.3899 8.424C12.9845 9.61867 12.0779 10.6427 10.6699 11.496C9.30454 12.328 7.89654 12.744 6.44588 12.744C4.71788 12.744 3.91788 12.1893 4.04588 11.08C4.36588 8.28533 6.08321 5.90667 9.19788 3.944C12.2912 2.00267 16.0245 1.032 20.3979 1.032C22.0619 1.032 23.6725 1.18133 25.2299 1.48C26.8085 1.77867 28.0885 2.33333 29.0699 3.144C30.0939 3.99733 30.6059 5 30.6059 6.152C30.6059 6.64267 30.4885 7.176 30.2539 7.752C29.8912 8.584 29.3365 9.29867 28.5899 9.896C27.8432 10.472 26.9792 10.9413 25.9979 11.304C25.0165 11.6667 23.9819 11.9333 22.8939 12.104C21.8059 12.2747 20.7499 12.36 19.7259 12.36C19.1712 12.36 18.6379 12.3387 18.1259 12.296C17.6352 12.2533 17.1765 12.1893 16.7499 12.104C16.8779 12.5093 17.1019 13.2453 17.4219 14.312C17.7419 15.3787 18.1472 16.7653 18.6379 18.472C18.7872 18.9413 18.9899 19.4533 19.2459 20.008C19.5232 20.5627 19.8325 21.0853 20.1739 21.576C20.5152 22.0667 20.8779 22.472 21.2619 22.792C21.6672 23.112 22.0725 23.272 22.4779 23.272C23.3739 23.272 24.1205 22.3653 24.7179 20.552C24.8245 20.1253 24.9419 19.912 25.0699 19.912C25.1765 19.912 25.2725 20.1147 25.3579 20.52C25.3792 20.584 25.3899 20.6693 25.3899 20.776C25.3899 21.3307 25.0912 22.0133 24.4939 22.824C23.7045 23.9973 22.8192 24.584 21.8379 24.584ZM27.1164 21.416C26.4337 21.416 25.815 21.2027 25.2604 20.776C24.7057 20.328 24.4284 19.7413 24.4284 19.016C24.4284 17.5013 25.3564 15.7733 27.2124 13.832C29.111 11.8693 30.807 10.888 32.3004 10.888C32.791 10.888 33.1857 11.0267 33.4844 11.304C33.8044 11.56 33.9644 11.88 33.9644 12.264C33.9644 13.4587 33.015 14.632 31.1164 15.784C29.431 16.808 28.0124 17.32 26.8604 17.32C26.6897 17.32 26.5404 17.2987 26.4124 17.256C26.0924 17.832 25.9324 18.44 25.9324 19.08C25.9324 20.1893 26.455 20.744 27.5004 20.744C28.567 20.744 29.943 20.0293 31.6284 18.6C32.9297 17.5547 34.039 16.4453 34.9564 15.272C35.1484 15.016 35.319 14.888 35.4684 14.888C35.5964 14.888 35.6604 14.952 35.6604 15.08C35.6604 15.208 35.575 15.3893 35.4044 15.624C34.807 16.4133 34.167 17.1387 33.4844 17.8C32.8017 18.4613 32.0657 19.0693 31.2764 19.624C29.6337 20.8187 28.247 21.416 27.1164 21.416ZM27.3084 16.616C28.119 16.616 29.175 16.2107 30.4764 15.4C30.903 15.1013 31.319 14.7707 31.7244 14.408C32.151 14.024 32.4924 13.64 32.7484 13.256C33.0257 12.872 33.1644 12.5307 33.1644 12.232C33.1644 11.9547 32.9404 11.816 32.4924 11.816C31.8524 11.816 30.9564 12.296 29.8044 13.256C29.2497 13.7253 28.7164 14.2373 28.2044 14.792C27.6924 15.3467 27.255 15.9333 26.8924 16.552C27.0204 16.5947 27.159 16.616 27.3084 16.616ZM34.4391 27.56C33.7565 27.56 33.1591 27.272 32.6471 26.696C32.1351 26.0987 31.8898 25.4373 31.9111 24.712C32.1671 25.032 32.5085 25.4053 32.9351 25.832C33.4898 26.3653 34.0338 26.632 34.5671 26.632C35.7831 26.632 37.0951 25.6613 38.5031 23.72C38.9938 23.0373 39.4951 22.2373 40.0071 21.32C40.5405 20.424 41.0418 19.4213 41.5111 18.312L42.7271 15.368L38.0231 19.048C36.5725 20.1787 35.4098 20.744 34.5351 20.744C34.0658 20.744 33.6925 20.5733 33.4151 20.232C33.1378 19.8907 32.9991 19.5387 32.9991 19.176C32.9991 18.2587 33.7885 16.7547 35.3671 14.664C36.9458 12.552 38.1298 11.496 38.9191 11.496C39.5805 11.496 39.9111 11.7413 39.9111 12.232C39.9111 12.424 38.9618 13.5333 37.0631 15.56C35.1858 17.5653 34.2471 18.92 34.2471 19.624C34.2471 19.9013 34.4285 20.04 34.7911 20.04C35.4738 20.04 36.9565 19.1547 39.2391 17.384C40.1778 16.6373 41.0098 15.9547 41.7351 15.336C42.4605 14.7173 43.0685 14.1627 43.5591 13.672C43.7298 13.4587 43.9005 13.256 44.0711 13.064C44.2418 12.8507 44.4018 12.6373 44.5511 12.424C44.9565 11.9547 45.3618 11.72 45.7671 11.72C46.3431 11.72 46.6311 11.9547 46.6311 12.424C46.6311 12.5093 46.1831 13.2133 45.2871 14.536C44.8178 15.2613 44.4445 15.8267 44.1671 16.232C43.8898 16.616 43.7298 16.8613 43.6871 16.968C43.0258 18.248 42.0125 20.1147 40.6471 22.568C38.5778 25.896 36.5085 27.56 34.4391 27.56ZM49.2269 21.064C48.2242 21.064 47.4775 20.7333 46.9869 20.072C46.5175 19.4107 46.1335 18.4933 45.8349 17.32C45.4509 17.704 45.1842 17.896 45.0349 17.896C44.9282 17.896 44.8749 17.8107 44.8749 17.64C44.8749 17.512 44.9282 17.3947 45.0349 17.288C45.0349 17.288 45.3015 16.9573 45.8349 16.296C46.3895 15.6347 47.3175 14.7067 48.6189 13.512L52.6509 9.736C53.2055 9.20267 53.6429 8.79733 53.9629 8.52C54.3042 8.24267 54.5495 8.104 54.6989 8.104C55.3815 8.104 55.7229 8.36 55.7229 8.872C55.7229 9.128 55.5842 9.42667 55.3069 9.768C55.0935 10.024 54.9335 10.2267 54.8269 10.376C54.7415 10.504 54.6882 10.5787 54.6669 10.6C54.2829 11.2613 53.9309 12.4453 53.6109 14.152C53.3762 15.4107 53.1735 16.4453 53.0029 17.256C52.8322 18.0667 52.6935 18.6533 52.5869 19.016C53.4829 18.9947 54.3682 18.7173 55.2429 18.184C56.1175 17.6507 57.0562 16.776 58.0589 15.56C58.1015 15.5173 58.1655 15.4533 58.2509 15.368C58.3362 15.2827 58.4215 15.24 58.5069 15.24C58.6349 15.24 58.6989 15.2933 58.6989 15.4C58.6989 15.5067 58.6669 15.6133 58.6029 15.72C58.5389 15.8267 58.4749 15.9227 58.4109 16.008C57.7495 16.7973 57.1309 17.448 56.5549 17.96C55.9789 18.4507 55.3709 18.8453 54.7309 19.144C54.0909 19.4213 53.3335 19.656 52.4589 19.848L51.4349 20.52C51.1575 20.712 50.8269 20.8507 50.4429 20.936C50.0589 21.0213 49.6535 21.064 49.2269 21.064ZM49.6109 19.432C50.1015 19.432 50.5069 19.3147 50.8269 19.08C51.0615 18.952 51.2855 18.6 51.4989 18.024C51.7335 17.4267 51.9575 16.6907 52.1709 15.816C52.3415 15.0693 52.4695 14.344 52.5549 13.64C52.6615 12.9147 52.7575 12.2213 52.8429 11.56L52.9709 10.472C52.4802 10.8347 51.8615 11.3573 51.1149 12.04C50.3682 12.7227 49.6322 13.4373 48.9069 14.184C48.1815 14.9307 47.7122 15.4853 47.4989 15.848C47.2855 16.1893 47.1682 16.4453 47.1469 16.616C47.0615 17.4693 47.2642 18.152 47.7549 18.664C48.2669 19.176 48.8855 19.432 49.6109 19.432ZM71.8066 23.08C69.4386 23.08 67.604 22.4507 66.3026 21.192C65.0226 19.9333 64.3826 18.3013 64.3826 16.296C64.3826 14.4613 64.8306 12.6693 65.7266 10.92C66.644 9.17067 67.796 7.56 69.1826 6.088C70.3133 4.89333 71.604 3.85867 73.0546 2.984C74.5266 2.10933 76.0626 1.42667 77.6626 0.935999C79.284 0.445332 80.8626 0.199999 82.3986 0.199999C83.6146 0.199999 84.7133 0.370666 85.6946 0.712C86.676 1.032 87.4546 1.544 88.0306 2.248C88.6066 2.952 88.8946 3.86933 88.8946 5C88.8946 6.00267 88.6493 6.94133 88.1586 7.816C87.6893 8.66933 87.0493 9.416 86.2386 10.056C85.4493 10.696 84.5746 11.1973 83.6146 11.56C82.6546 11.9227 81.684 12.104 80.7026 12.104C79.4226 12.104 78.3453 11.816 77.4706 11.24C76.596 10.6427 76.1586 9.896 76.1586 9C76.1586 7.848 76.8946 6.71733 78.3666 5.608C78.6226 5.416 78.8253 5.32 78.9746 5.32C79.0813 5.32 79.1346 5.36267 79.1346 5.448C79.1346 5.66133 78.964 5.832 78.6226 5.96C77.428 6.92 76.8306 7.89067 76.8306 8.872C76.8306 9.576 77.1506 10.1733 77.7906 10.664C78.4306 11.1333 79.2306 11.368 80.1906 11.368C81.044 11.368 81.8973 11.1867 82.7506 10.824C83.6253 10.4613 84.4253 9.97067 85.1506 9.352C85.876 8.73333 86.452 8.04 86.8786 7.272C87.3266 6.48267 87.5506 5.66133 87.5506 4.808C87.5506 3.42133 87.0813 2.408 86.1426 1.768C85.204 1.128 84.0093 0.807999 82.5586 0.807999C80.916 0.807999 79.284 1.11733 77.6626 1.736C76.0626 2.35467 74.5586 3.208 73.1506 4.296C71.7426 5.384 70.484 6.632 69.3746 8.04C67.156 10.8347 66.0466 13.4587 66.0466 15.912C66.0466 17.2133 66.3453 18.3227 66.9426 19.24C67.54 20.136 68.3613 20.8187 69.4066 21.288C70.4733 21.7573 71.6893 21.992 73.0546 21.992C75.0813 21.992 77.044 21.5547 78.9426 20.68C80.8413 19.784 82.4626 18.5893 83.8066 17.096C84.1693 16.712 84.436 16.52 84.6066 16.52C84.7346 16.52 84.7986 16.616 84.7986 16.808C84.7986 17.064 84.6813 17.3093 84.4466 17.544C83.7213 18.312 82.8573 19.0267 81.8546 19.688C80.852 20.3493 79.7746 20.936 78.6226 21.448C77.492 21.96 76.34 22.3547 75.1666 22.632C73.9933 22.9307 72.8733 23.08 71.8066 23.08ZM88.2414 21.416C87.5587 21.416 86.94 21.2027 86.3854 20.776C85.8307 20.328 85.5534 19.7413 85.5534 19.016C85.5534 17.5013 86.4814 15.7733 88.3374 13.832C90.236 11.8693 91.932 10.888 93.4254 10.888C93.916 10.888 94.3107 11.0267 94.6094 11.304C94.9294 11.56 95.0894 11.88 95.0894 12.264C95.0894 13.4587 94.14 14.632 92.2414 15.784C90.556 16.808 89.1374 17.32 87.9854 17.32C87.8147 17.32 87.6654 17.2987 87.5374 17.256C87.2174 17.832 87.0574 18.44 87.0574 19.08C87.0574 20.1893 87.58 20.744 88.6254 20.744C89.692 20.744 91.068 20.0293 92.7534 18.6C94.0547 17.5547 95.164 16.4453 96.0814 15.272C96.2734 15.016 96.444 14.888 96.5934 14.888C96.7214 14.888 96.7854 14.952 96.7854 15.08C96.7854 15.208 96.7 15.3893 96.5294 15.624C95.932 16.4133 95.292 17.1387 94.6094 17.8C93.9267 18.4613 93.1907 19.0693 92.4014 19.624C90.7587 20.8187 89.372 21.416 88.2414 21.416ZM88.4334 16.616C89.244 16.616 90.3 16.2107 91.6014 15.4C92.028 15.1013 92.444 14.7707 92.8494 14.408C93.276 14.024 93.6174 13.64 93.8734 13.256C94.1507 12.872 94.2894 12.5307 94.2894 12.232C94.2894 11.9547 94.0654 11.816 93.6174 11.816C92.9774 11.816 92.0814 12.296 90.9294 13.256C90.3747 13.7253 89.8414 14.2373 89.3294 14.792C88.8174 15.3467 88.38 15.9333 88.0174 16.552C88.1454 16.5947 88.284 16.616 88.4334 16.616ZM101.356 21.16C100.439 21.16 99.8095 20.9253 99.4681 20.456C99.1268 19.9653 98.9561 19.3147 98.9561 18.504C98.9561 17.608 99.2335 16.5413 99.7881 15.304C100.001 14.8133 100.225 14.376 100.46 13.992C100.695 13.5867 100.94 13.2133 101.196 12.872C101.111 12.8933 101.036 12.904 100.972 12.904C100.908 12.904 100.844 12.904 100.78 12.904C100.268 12.904 99.8415 12.5413 99.5001 11.816L97.1321 14.888C95.8735 16.5307 95.1055 17.352 94.8281 17.352C94.7215 17.352 94.6681 17.3093 94.6681 17.224C94.6681 17.1173 94.7215 16.9787 94.8281 16.808C94.8921 16.68 95.0201 16.5093 95.2121 16.296C96.0228 15.3573 96.7695 14.4293 97.4521 13.512C98.1348 12.5947 98.7001 11.6987 99.1481 10.824C99.6388 8.968 100.257 8.04 101.004 8.04C101.495 8.04 101.74 8.264 101.74 8.712C101.74 9.11733 101.473 9.65067 100.94 10.312C100.428 10.9733 100.172 11.3147 100.172 11.336C100.172 11.784 100.503 12.008 101.164 12.008C101.548 12.008 101.975 11.8693 102.444 11.592L103.276 11.08C103.319 11.0587 103.383 11.048 103.468 11.048C103.724 11.048 103.948 11.1547 104.14 11.368C104.332 11.5813 104.396 11.7733 104.332 11.944L102.124 14.728C100.759 16.4773 100.076 17.8853 100.076 18.952C100.076 19.912 100.545 20.392 101.484 20.392C102.124 20.392 102.807 20.2 103.532 19.816C104.279 19.432 104.993 18.9627 105.676 18.408C106.38 17.832 106.967 17.2773 107.436 16.744L108.204 15.848C108.247 15.8053 108.3 15.752 108.364 15.688C108.428 15.624 108.481 15.592 108.524 15.592C108.673 15.592 108.748 15.6667 108.748 15.816C108.748 15.8587 108.727 15.9333 108.684 16.04C108.641 16.1467 108.567 16.264 108.46 16.392L107.436 17.544C106.945 18.0987 106.337 18.664 105.612 19.24C104.908 19.7947 104.172 20.2533 103.404 20.616C102.657 20.9787 101.975 21.16 101.356 21.16ZM109.566 21.16C109.054 21.16 108.542 20.9787 108.03 20.616C107.518 20.2533 107.23 19.8267 107.166 19.336C106.953 17.6933 107.987 15.7413 110.27 13.48C112.531 11.2187 114.569 10.088 116.382 10.088C116.873 10.088 117.257 10.2053 117.534 10.44C117.683 10.5893 117.79 10.792 117.854 11.048C117.939 11.304 118.003 11.432 118.046 11.432C118.131 11.432 118.206 11.4213 118.27 11.4C118.334 11.3573 118.409 11.336 118.494 11.336C118.75 11.336 118.974 11.432 119.166 11.624C119.358 11.816 119.465 11.9867 119.486 12.136C119.507 12.1787 118.825 13.2347 117.438 15.304C116.051 17.3307 115.422 18.7067 115.55 19.432C115.657 19.9227 115.891 20.168 116.254 20.168C117.363 20.168 119.39 18.3333 122.334 14.664C122.398 14.5787 122.462 14.536 122.526 14.536C122.633 14.536 122.686 14.6107 122.686 14.76C122.686 14.9307 122.59 15.144 122.398 15.4C119.689 19.048 117.609 20.872 116.158 20.872C115.966 20.872 115.785 20.84 115.614 20.776C114.675 20.4133 114.206 19.7093 114.206 18.664C114.206 18.3013 114.249 17.9387 114.334 17.576L112.35 19.496C111.753 20.0933 111.209 20.52 110.718 20.776C110.249 21.032 109.865 21.16 109.566 21.16ZM109.278 20.456C110.515 20.456 112.201 19.1013 114.334 16.392L117.726 11.72C117.555 11.4213 117.278 11.272 116.894 11.272C115.593 11.272 113.833 12.3173 111.614 14.408C109.31 16.5413 108.275 18.3013 108.51 19.688C108.617 20.2 108.873 20.456 109.278 20.456ZM128.161 21.064C127.649 21.064 127.393 20.776 127.393 20.2C127.628 19.0053 128.108 17.6613 128.833 16.168C129.175 15.4427 129.516 14.728 129.857 14.024C130.22 13.32 130.572 12.6053 130.913 11.88C130.124 12.4133 129.335 13.0107 128.545 13.672C127.756 14.312 126.988 15.0373 126.241 15.848C125.367 16.7867 124.353 17.992 123.201 19.464C122.369 20.5093 121.889 21.032 121.761 21.032C121.463 21.032 121.217 20.8933 121.025 20.616C120.833 20.3387 120.737 20.104 120.737 19.912C120.737 19.6347 120.983 18.92 121.473 17.768C121.623 17.4053 121.772 17.0533 121.921 16.712C122.092 16.3493 122.252 15.9973 122.401 15.656L120.481 17.672C120.439 17.7147 120.311 17.8427 120.097 18.056C119.884 18.2693 119.713 18.376 119.585 18.376C119.479 18.376 119.425 18.3013 119.425 18.152C119.425 18.1093 119.447 18.056 119.489 17.992C119.511 17.9067 119.575 17.8107 119.681 17.704C120.001 17.384 120.332 17.0427 120.673 16.68C121.015 16.3173 121.367 15.9013 121.729 15.432C122.007 15.0693 122.401 14.536 122.913 13.832C123.447 13.1067 124.097 12.2 124.865 11.112C125.1 10.792 125.431 10.632 125.857 10.632C126.284 10.632 126.497 10.8347 126.497 11.24C126.497 11.3893 125.953 12.3813 124.865 14.216C124.311 15.1973 123.863 15.9973 123.521 16.616C123.201 17.2347 122.999 17.6933 122.913 17.992C123.383 17.48 123.937 16.904 124.577 16.264C125.239 15.624 125.996 14.9093 126.849 14.12C129.473 11.688 131.201 10.472 132.033 10.472C132.268 10.472 132.492 10.5467 132.705 10.696C132.94 10.8453 133.057 11.0373 133.057 11.272C133.057 11.3787 132.641 12.1573 131.809 13.608C130.999 15.08 130.551 15.9547 130.465 16.232C132.833 14.248 134.017 13.2453 134.017 13.224C136.023 11.6667 137.463 10.888 138.337 10.888C138.593 10.888 138.828 10.9733 139.041 11.144C139.276 11.2933 139.393 11.4747 139.393 11.688C139.393 11.7307 138.711 12.6267 137.345 14.376C135.937 16.1467 135.148 17.5973 134.977 18.728C134.892 19.496 135.287 19.88 136.161 19.88C136.695 19.88 137.441 19.5387 138.401 18.856C139.361 18.1733 140.364 17.2347 141.409 16.04C141.537 15.8907 141.676 15.752 141.825 15.624C141.975 15.4747 142.103 15.4 142.209 15.4C142.337 15.4 142.401 15.4533 142.401 15.56C142.401 15.7093 142.305 15.88 142.113 16.072C141.559 16.7333 140.897 17.416 140.129 18.12C139.383 18.824 138.636 19.4213 137.889 19.912C137.143 20.3813 136.481 20.616 135.905 20.616C134.455 20.616 133.729 19.944 133.729 18.6C133.729 18.1307 133.857 17.5867 134.113 16.968C134.369 16.328 134.625 15.752 134.881 15.24C135.5 14.0453 136.172 12.9893 136.897 12.072C136.215 12.4133 135.5 12.8613 134.753 13.416C134.028 13.9707 133.271 14.6213 132.481 15.368C130.647 17.16 129.388 18.9733 128.705 20.808C128.599 20.9787 128.417 21.064 128.161 21.064ZM147.869 9.992C147.506 9.992 147.186 9.87467 146.909 9.64C146.653 9.40533 146.525 9.13867 146.525 8.84C146.525 8.24267 146.93 7.944 147.741 7.944C148.04 7.944 148.338 8.05067 148.637 8.264C148.936 8.456 149.085 8.70133 149.085 9C149.085 9.256 148.946 9.49067 148.669 9.704C148.392 9.896 148.125 9.992 147.869 9.992ZM141.949 21.352C141.48 21.352 141.096 21.2027 140.797 20.904C140.477 20.584 140.317 20.0293 140.317 19.24C140.317 18.792 140.424 18.28 140.637 17.704C140.829 17.1067 141.074 16.5093 141.373 15.912C141.693 15.3147 142.002 14.7813 142.301 14.312C143.496 12.3707 144.477 11.3893 145.245 11.368C145.437 11.368 145.672 11.4533 145.949 11.624C146.226 11.7733 146.365 11.944 146.365 12.136C146.365 12.136 145.554 13.1813 143.933 15.272C142.333 17.3413 141.533 18.8133 141.533 19.688C141.533 20.3707 141.8 20.712 142.333 20.712C142.674 20.712 143.112 20.5733 143.645 20.296C144.2 19.9973 144.776 19.624 145.373 19.176C145.97 18.728 146.536 18.248 147.069 17.736C147.624 17.224 148.072 16.7547 148.413 16.328C148.626 16.0507 148.808 15.8587 148.957 15.752C149.128 15.6453 149.234 15.592 149.277 15.592C149.362 15.592 149.405 15.656 149.405 15.784C149.405 15.8907 149.277 16.104 149.021 16.424C148.786 16.744 148.456 17.1173 148.029 17.544C147.517 18.056 146.952 18.6107 146.333 19.208C145.714 19.8053 145.042 20.3173 144.317 20.744C143.592 21.1493 142.802 21.352 141.949 21.352ZM150.448 21.416C149.765 21.416 149.146 21.2027 148.592 20.776C148.037 20.328 147.76 19.7413 147.76 19.016C147.76 17.5013 148.688 15.7733 150.544 13.832C152.442 11.8693 154.138 10.888 155.632 10.888C156.144 10.888 156.549 11.0267 156.848 11.304C157.146 11.56 157.296 11.88 157.296 12.264C157.296 12.7973 157.168 13.288 156.912 13.736C156.613 14.2907 156.186 14.568 155.632 14.568C155.077 14.568 154.8 14.3973 154.8 14.056C154.8 13.8213 154.938 13.4693 155.216 13C155.514 12.5093 155.664 12.2533 155.664 12.232C155.664 12.1893 155.632 12.168 155.568 12.168C154.97 12.232 154.138 12.6693 153.072 13.48C152.602 13.8427 152.186 14.184 151.824 14.504C151.482 14.824 151.205 15.1333 150.992 15.432L149.744 17.256C149.616 17.448 149.477 17.7787 149.328 18.248C149.2 18.7173 149.136 19.0693 149.136 19.304C149.136 19.7307 149.274 20.0827 149.552 20.36C149.85 20.6373 150.224 20.776 150.672 20.776C151.738 20.776 153.146 20.0827 154.896 18.696C156.304 17.5867 157.434 16.4667 158.288 15.336C158.394 15.208 158.522 15.144 158.672 15.144C158.821 15.144 158.896 15.1867 158.896 15.272C158.896 15.336 158.842 15.4427 158.736 15.592C157.562 17.1493 156.186 18.4933 154.608 19.624C152.922 20.8187 151.536 21.416 150.448 21.416ZM160.758 21.064C159.755 21.064 159.009 20.7333 158.518 20.072C158.049 19.4107 157.665 18.4933 157.366 17.32C156.982 17.704 156.715 17.896 156.566 17.896C156.459 17.896 156.406 17.8107 156.406 17.64C156.406 17.512 156.459 17.3947 156.566 17.288C156.566 17.288 156.833 16.9573 157.366 16.296C157.921 15.6347 158.849 14.7067 160.15 13.512L164.182 9.736C164.737 9.20267 165.174 8.79733 165.494 8.52C165.835 8.24267 166.081 8.104 166.23 8.104C166.913 8.104 167.254 8.36 167.254 8.872C167.254 9.128 167.115 9.42667 166.838 9.768C166.625 10.024 166.465 10.2267 166.358 10.376C166.273 10.504 166.219 10.5787 166.198 10.6C165.814 11.2613 165.462 12.4453 165.142 14.152C164.907 15.4107 164.705 16.4453 164.534 17.256C164.363 18.0667 164.225 18.6533 164.118 19.016C165.014 18.9947 165.899 18.7173 166.774 18.184C167.649 17.6507 168.587 16.776 169.59 15.56C169.633 15.5173 169.697 15.4533 169.782 15.368C169.867 15.2827 169.953 15.24 170.038 15.24C170.166 15.24 170.23 15.2933 170.23 15.4C170.23 15.5067 170.198 15.6133 170.134 15.72C170.07 15.8267 170.006 15.9227 169.942 16.008C169.281 16.7973 168.662 17.448 168.086 17.96C167.51 18.4507 166.902 18.8453 166.262 19.144C165.622 19.4213 164.865 19.656 163.99 19.848L162.966 20.52C162.689 20.712 162.358 20.8507 161.974 20.936C161.59 21.0213 161.185 21.064 160.758 21.064ZM161.142 19.432C161.633 19.432 162.038 19.3147 162.358 19.08C162.593 18.952 162.817 18.6 163.03 18.024C163.265 17.4267 163.489 16.6907 163.702 15.816C163.873 15.0693 164.001 14.344 164.086 13.64C164.193 12.9147 164.289 12.2213 164.374 11.56L164.502 10.472C164.011 10.8347 163.393 11.3573 162.646 12.04C161.899 12.7227 161.163 13.4373 160.438 14.184C159.713 14.9307 159.243 15.4853 159.03 15.848C158.817 16.1893 158.699 16.4453 158.678 16.616C158.593 17.4693 158.795 18.152 159.286 18.664C159.798 19.176 160.417 19.432 161.142 19.432Z" fill="#6D7D7D"/>
</svg>
