<svg width="198" height="50" viewBox="0 0 198 50" fill="none" xmlns="http://www.w3.org/2000/svg">
<path d="M62.3991 17.7442L53.5122 8.71219C53.5067 8.70661 53.5008 8.70146 53.4953 8.69588C53.4898 8.6903 53.4833 8.68279 53.477 8.67635C50.8836 6.04092 47.4648 4.41054 43.8129 4.06771C40.1611 3.72488 36.5065 4.69121 33.4819 6.79924C30.4573 4.69121 26.8027 3.72488 23.1509 4.06771C19.499 4.41054 16.0802 6.04092 13.4868 8.67635L4.60001 17.7081C1.83121 20.5229 0.196605 24.2872 0.0166147 28.2631C-0.163376 32.239 1.12422 36.1401 3.62702 39.2014C6.12983 42.2625 9.66735 44.2635 13.5462 44.8117C17.4251 45.3599 21.3656 44.4161 24.5953 42.1651C27.2103 43.9876 30.3067 44.9634 33.4775 44.9645C36.6484 44.9654 39.7452 43.9913 42.3613 42.1702C45.5872 44.4352 49.5299 45.3921 53.4146 44.8533C57.2994 44.3143 60.8455 42.3188 63.3564 39.2581C65.8671 36.1974 67.161 32.2931 66.984 28.3125C66.8068 24.3316 65.1715 20.562 62.3991 17.7442ZM19.7696 37.6422C17.7634 38.6161 15.4831 38.8376 13.3317 38.2679C11.1802 37.6984 9.29619 36.374 8.01252 34.5291C6.72888 32.6842 6.12823 30.4377 6.31677 28.1862C6.50528 25.9348 7.47084 23.8235 9.0428 22.2257L17.9294 13.1936C19.3088 11.7936 21.0807 10.8619 23.002 10.5264C24.9233 10.1909 26.8997 10.4681 28.6596 11.32L22.3735 17.7081C19.9628 20.1455 18.4022 23.3169 17.9294 26.7393C17.8253 27.4876 17.7728 28.2423 17.7723 28.998C17.766 31.9858 18.5904 34.9144 20.1504 37.4469C20.0245 37.5151 19.8976 37.5799 19.7696 37.6415V37.6422ZM40.1469 35.7726C38.3773 37.5593 35.9829 38.56 33.4884 38.556C30.994 38.5517 28.603 37.5426 26.8391 35.7501C25.0753 33.9573 24.0825 31.5273 24.0783 28.992C24.0743 26.4568 25.0589 24.0234 26.8169 22.2248L33.4819 15.4509L40.1469 22.2248C41.9115 24.0227 42.9024 26.4585 42.9024 28.998C42.9024 31.5373 41.9115 33.9732 40.1469 35.7711V35.7726ZM57.9556 35.8084C56.5698 37.2133 54.7885 38.1455 52.8583 38.4763C50.9282 38.8071 48.9446 38.5199 47.1822 37.6544C47.0555 37.5924 46.93 37.5274 46.806 37.4593C48.3708 34.9241 49.1978 31.9907 49.1915 28.998C49.1909 28.2423 49.1385 27.4876 49.0344 26.7393C48.5617 23.3169 47.001 20.1455 44.5903 17.7081L38.3426 11.3586L38.3074 11.3228C40.0664 10.4713 42.0418 10.1939 43.9622 10.5286C45.8827 10.8633 47.654 11.7937 49.0335 13.1921C49.0399 13.1986 49.0458 13.2054 49.0519 13.2119C49.058 13.2183 49.0633 13.2226 49.0688 13.2282L57.914 22.2179L57.9563 22.2609C59.7238 24.0575 60.7169 26.4942 60.7169 29.0348C60.7169 31.5753 59.7238 34.012 57.9563 35.8087L57.9556 35.8084Z" fill="#6D7D7D"/>
<path d="M77.2295 37C76.8668 37 76.6855 36.84 76.6855 36.52C76.6855 36.392 76.7175 36.2533 76.7815 36.104L85.2295 16.072C85.3575 15.752 85.4962 15.5387 85.6455 15.432C85.7948 15.304 86.0082 15.24 86.2855 15.24H88.0455C88.3442 15.24 88.5575 15.304 88.6855 15.432C88.8348 15.5387 88.9735 15.752 89.1015 16.072L97.5495 36.104C97.6135 36.2533 97.6455 36.392 97.6455 36.52C97.6455 36.84 97.4642 37 97.1015 37H94.3175C94.0402 37 93.8375 36.968 93.7095 36.904C93.6028 36.8187 93.4962 36.6587 93.3895 36.424L91.5655 31.944H82.7335L80.9415 36.424C80.8348 36.6587 80.7175 36.8187 80.5895 36.904C80.4828 36.968 80.2908 37 80.0135 37H77.2295ZM90.5415 28.968L87.1495 20.584L83.7575 28.968H90.5415ZM101.978 37C101.552 37 101.242 36.904 101.05 36.712C100.88 36.52 100.794 36.232 100.794 35.848V16.424C100.794 16.0187 100.88 15.72 101.05 15.528C101.242 15.336 101.552 15.24 101.978 15.24H103.674C104.101 15.24 104.41 15.336 104.602 15.528C104.794 15.72 104.89 16.0187 104.89 16.424V35.848C104.89 36.232 104.794 36.52 104.602 36.712C104.432 36.904 104.122 37 103.674 37H101.978ZM109.853 37C109.427 37 109.117 36.904 108.925 36.712C108.755 36.52 108.669 36.232 108.669 35.848V16.424C108.669 16.0187 108.755 15.72 108.925 15.528C109.117 15.336 109.427 15.24 109.853 15.24H111.549C111.976 15.24 112.285 15.336 112.477 15.528C112.669 15.72 112.765 16.0187 112.765 16.424V35.848C112.765 36.232 112.669 36.52 112.477 36.712C112.307 36.904 111.997 37 111.549 37H109.853ZM118.144 18.984C117.632 18.984 117.238 18.8347 116.96 18.536C116.683 18.2373 116.544 17.8747 116.544 17.448V16.776C116.544 16.3493 116.683 15.9867 116.96 15.688C117.238 15.3893 117.632 15.24 118.144 15.24H119.52C120.032 15.24 120.427 15.3893 120.704 15.688C121.003 15.9867 121.152 16.3493 121.152 16.776V17.448C121.152 17.8747 121.003 18.2373 120.704 18.536C120.427 18.8347 120.032 18.984 119.52 18.984H118.144ZM118.016 37C117.59 37 117.28 36.904 117.088 36.712C116.896 36.52 116.8 36.232 116.8 35.848V22.824C116.8 22.4187 116.896 22.12 117.088 21.928C117.28 21.736 117.59 21.64 118.016 21.64H119.68C120.107 21.64 120.416 21.736 120.608 21.928C120.8 22.12 120.896 22.4187 120.896 22.824V35.848C120.896 36.232 120.8 36.52 120.608 36.712C120.438 36.904 120.128 37 119.68 37H118.016ZM131.127 37.48C129.037 37.48 127.373 36.8507 126.135 35.592C124.898 34.312 124.279 32.52 124.279 30.216C124.279 28.424 124.674 26.8453 125.463 25.48C126.253 24.0933 127.373 23.0267 128.823 22.28C130.295 21.5333 132.002 21.16 133.943 21.16C136.653 21.16 138.946 21.8 140.823 23.08V36.136C140.823 36.456 140.749 36.68 140.599 36.808C140.471 36.936 140.237 37 139.895 37H138.135C137.901 37 137.719 36.9573 137.591 36.872C137.485 36.7653 137.41 36.6053 137.367 36.392L137.111 35.144C136.45 35.9547 135.629 36.552 134.647 36.936C133.687 37.2987 132.514 37.48 131.127 37.48ZM132.663 34.568C133.794 34.568 134.786 34.2373 135.639 33.576C136.514 32.9147 136.951 32.04 136.951 30.952V24.712C136.503 24.4773 136.045 24.3173 135.575 24.232C135.127 24.1253 134.573 24.072 133.911 24.072C132.226 24.072 130.871 24.6053 129.847 25.672C128.823 26.7387 128.311 28.2107 128.311 30.088C128.311 31.624 128.663 32.7547 129.367 33.48C130.093 34.2053 131.191 34.568 132.663 34.568ZM145.823 37C145.396 37 145.087 36.904 144.895 36.712C144.703 36.52 144.607 36.232 144.607 35.848V22.504C144.607 22.184 144.66 21.96 144.767 21.832C144.873 21.704 145.097 21.64 145.439 21.64H147.263C147.732 21.64 147.977 21.8533 147.999 22.28L148.063 23.56C149.513 21.96 151.593 21.16 154.303 21.16C156.031 21.16 157.417 21.6293 158.463 22.568C159.529 23.4853 160.063 24.872 160.063 26.728V35.848C160.063 36.232 159.967 36.52 159.775 36.712C159.604 36.904 159.305 37 158.879 37H157.183C156.756 37 156.447 36.904 156.255 36.712C156.063 36.52 155.967 36.232 155.967 35.848V26.984C155.967 25.9387 155.721 25.2027 155.231 24.776C154.761 24.328 153.993 24.104 152.927 24.104C151.796 24.104 150.804 24.4133 149.951 25.032C149.119 25.6293 148.703 26.408 148.703 27.368V35.848C148.703 36.232 148.607 36.52 148.415 36.712C148.244 36.904 147.935 37 147.487 37H145.823ZM164.021 37C163.659 37 163.403 36.936 163.253 36.808C163.125 36.6587 163.061 36.4133 163.061 36.072C163.061 35.496 163.125 35.0693 163.253 34.792C163.381 34.5147 163.68 34.1307 164.149 33.64L172.661 24.776H164.565C164.139 24.776 163.829 24.6907 163.637 24.52C163.445 24.3493 163.349 24.0613 163.349 23.656V22.728C163.349 22.3227 163.445 22.0453 163.637 21.896C163.829 21.7253 164.139 21.64 164.565 21.64H176.885C177.227 21.64 177.461 21.7147 177.589 21.864C177.717 21.992 177.781 22.2267 177.781 22.568C177.781 23.144 177.707 23.592 177.557 23.912C177.429 24.2107 177.152 24.584 176.725 25.032L168.469 33.896H176.885C177.312 33.896 177.621 33.992 177.813 34.184C178.005 34.3547 178.101 34.6427 178.101 35.048V35.912C178.101 36.296 178.005 36.5733 177.813 36.744C177.621 36.9147 177.312 37 176.885 37H164.021ZM184.131 41.992C183.321 41.992 182.574 41.8747 181.891 41.64C181.209 41.4053 180.622 41.0853 180.131 40.68C179.961 40.5307 179.875 40.392 179.875 40.264C179.875 40.136 179.918 40.0187 180.003 39.912L180.899 38.376C181.027 38.1627 181.155 38.056 181.283 38.056C181.39 38.056 181.518 38.12 181.667 38.248C182.009 38.504 182.35 38.696 182.691 38.824C183.054 38.952 183.481 39.016 183.971 39.016C184.611 39.016 185.113 38.8027 185.475 38.376C185.838 37.9707 186.211 37.2773 186.595 36.296L180.131 22.536C180.046 22.3227 180.003 22.1733 180.003 22.088C180.003 21.7893 180.174 21.64 180.515 21.64H183.235C183.513 21.64 183.715 21.6827 183.843 21.768C183.971 21.8533 184.089 22.0133 184.195 22.248L188.483 32.296L192.771 22.248C192.878 22.0133 192.995 21.8533 193.123 21.768C193.251 21.6827 193.454 21.64 193.731 21.64H196.451C196.793 21.64 196.963 21.7893 196.963 22.088C196.963 22.1733 196.921 22.3227 196.835 22.536L190.819 35.368C189.987 37.1173 189.283 38.44 188.707 39.336C188.153 40.232 187.513 40.8933 186.787 41.32C186.083 41.768 185.198 41.992 184.131 41.992Z" fill="#6D7D7D"/>
</svg>
